<svg width="32" height="32" viewBox="0 0 32 32" fill="none" xmlns="http://www.w3.org/2000/svg">
<path d="M6.43498 0.063015C6.43498 0.0972347 6.46628 0.364153 6.50384 0.658447C6.64155 1.74665 7.13606 2.82117 7.84965 3.58771C8.244 4.0052 8.93882 4.51166 9.33317 4.66223C9.45836 4.71013 9.56477 4.77173 9.56477 4.79226C9.56477 4.81964 9.44584 4.90861 9.30187 4.99759C8.45057 5.51089 7.43652 6.37324 6.58521 7.30404C5.29574 8.72076 4.26917 10.4455 3.60565 12.3344C3.40535 12.923 3.32397 13.0736 3.23008 13.0736C3.01725 13.0736 2.28488 13.4226 1.85297 13.7375C0.00639215 15.0652 -0.550711 17.7891 0.594793 19.8834C1.0893 20.7732 2.02824 21.5671 2.96091 21.875C3.16748 21.9435 3.34275 22.0051 3.35527 22.0119C3.36779 22.0188 3.46794 22.3062 3.58687 22.6416C3.87481 23.4902 4.50077 24.818 4.98276 25.5914C5.53986 26.5016 6.00307 27.0971 6.78552 27.932C8.76355 30.0332 11.1297 31.3267 13.9778 31.8742C14.8729 32.0385 17.1076 32.0453 18.0215 31.8742C19.9682 31.5183 21.7271 30.7723 23.2733 29.6568C24.1809 28.9997 24.7568 28.4796 25.533 27.6104C26.8976 26.0705 27.849 24.4074 28.5501 22.3062C28.6502 22.0188 28.6815 21.9914 28.9632 21.9093C29.6643 21.7108 30.5219 21.129 31.0038 20.5199C31.3544 20.0682 31.6361 19.5275 31.8238 18.9253C31.9741 18.4462 31.9991 18.2682 31.9991 17.5564C32.0054 16.8789 31.9803 16.6462 31.8614 16.2219C31.5672 15.1816 30.9725 14.3124 30.1713 13.7306C29.7394 13.4226 29.007 13.0736 28.7942 13.0736C28.7003 13.0736 28.6252 12.9299 28.4437 12.396C27.2794 9.04927 24.9821 6.23636 22.0589 4.59378C20.2436 3.57402 18.1341 3.01281 16.1123 3.01281C14.7352 3.01281 14.1781 2.82802 13.5083 2.14361C13.0639 1.69875 12.7822 1.12384 12.682 0.45997L12.6132 0.00141716H11.6868C10.6164 0.00141716 10.6978 -0.0670242 10.8229 0.747421C10.9106 1.35654 11.0984 1.93829 11.3675 2.46528C11.4927 2.71167 11.6054 2.93068 11.6179 2.95805C11.6492 3.04018 11.017 3.02649 10.6039 2.93752C10.0468 2.82802 9.57729 2.55425 9.15164 2.08886C8.71347 1.61662 8.47561 1.117 8.37545 0.45997L8.30034 0.00141716H7.36766C6.8356 0.00141716 6.43498 0.0287933 6.43498 0.063015ZM16.901 5.20291C19.1232 5.94891 19.8117 8.98767 18.1717 10.7808C17.214 11.828 15.8306 12.0607 14.5724 11.3763C13.7149 10.9109 12.9512 9.62417 12.9449 8.63863V8.41962H12.006H11.0671V8.69338C11.0671 9.50098 11.4426 10.7124 11.9372 11.4789C12.5694 12.4576 13.4332 13.1626 14.5098 13.5664C15.0732 13.7717 15.1483 13.7854 16.0121 13.7854C16.876 13.7854 16.9511 13.7717 17.5144 13.5664C18.2719 13.2789 18.854 12.9025 19.3986 12.3413C20.4001 11.3078 20.9572 9.90478 20.9572 8.41962C20.9572 7.80365 20.8258 7.0029 20.638 6.48275C20.5691 6.29796 20.5253 6.12686 20.5441 6.11317C20.6004 6.04473 22.0652 6.92761 22.6473 7.37932C23.4172 7.97475 24.7505 9.43254 25.2888 10.2675C25.7458 10.9793 26.4218 12.3481 26.6847 13.1078C26.7724 13.3679 26.9289 13.8949 27.0227 14.2713L27.198 14.9557L27.8052 15.0036C28.7316 15.0789 29.3388 15.4211 29.7519 16.1055C30.3904 17.1732 30.2464 18.4735 29.4014 19.3291C28.9507 19.7876 28.5563 19.9587 27.7802 20.034L27.198 20.0887L26.9664 20.9443C26.6972 21.9503 26.5783 22.2788 26.1589 23.196C24.2685 27.3161 20.2624 29.9853 15.9934 29.9784C11.7431 29.9716 7.7495 27.2955 5.86536 23.196C5.44597 22.2788 5.32704 21.9503 5.05787 20.9443L4.82627 20.0887L4.24413 20.034C3.46794 19.9587 3.07359 19.7876 2.6229 19.3291C2.09083 18.7952 1.89679 18.2956 1.89679 17.488C1.90305 16.961 1.92808 16.8173 2.07205 16.4956C2.3287 15.907 2.62916 15.5717 3.13618 15.2979C3.52428 15.0857 3.67451 15.0447 4.20657 15.0036L4.82627 14.9557L5.00154 14.2713C5.302 13.0941 5.64002 12.2112 6.1533 11.2599C8.18141 7.48882 11.8683 5.11393 15.7367 5.07287C16.3376 5.06602 16.588 5.0934 16.901 5.20291Z" fill="#054A91"/>
<path d="M10.2533 14.5861C9.57103 14.6682 9.02645 14.9489 8.48812 15.5101C7.9498 16.0713 7.56171 16.9542 7.56171 17.6317V17.9397L8.48187 17.9192L9.40202 17.8986L9.45836 17.5975C9.53347 17.1869 9.94661 16.7352 10.3222 16.653C10.6852 16.5709 11.0984 16.6599 11.3613 16.8789C11.5991 17.0774 11.8182 17.5017 11.8182 17.7618V17.9329H12.7572H13.6961V17.6728C13.6961 17.0637 13.3456 16.1876 12.8949 15.6538C12.1813 14.8257 11.2862 14.4629 10.2533 14.5861Z" fill="#054A91"/>
<path d="M21.0198 14.5861C20.2937 14.6682 19.6803 15.0173 19.1294 15.6538C18.6662 16.2013 18.3282 17.05 18.3282 17.6728V17.9329H19.2671H20.2061V17.7618C20.2061 17.5017 20.4251 17.0774 20.663 16.8789C20.9259 16.6599 21.339 16.5709 21.7021 16.653C22.0777 16.7352 22.4908 17.1869 22.5659 17.5975L22.6223 17.8986L23.5424 17.9192L24.4626 17.9397V17.6386C24.4626 16.4956 23.5362 15.1679 22.4407 14.7435C22.0714 14.5998 21.4955 14.5382 21.0198 14.5861Z" fill="#054A91"/>
<path d="M12.3377 22.6142C11.9184 22.8811 11.5553 23.1275 11.5303 23.1549C11.4489 23.237 12.1938 24.2226 12.6507 24.6401C13.189 25.1328 14.0404 25.6119 14.7289 25.8104C15.43 26.0157 16.5943 26.0157 17.2891 25.8104C18.4033 25.4887 19.4173 24.7632 20.1184 23.7914C20.3375 23.4902 20.5128 23.2165 20.5002 23.1823C20.494 23.1549 20.1372 22.9017 19.7115 22.6211L18.9353 22.1146L18.8102 22.2994C17.4581 24.2705 15.0607 24.4758 13.5646 22.7511C13.4081 22.5663 13.2391 22.3473 13.189 22.2652C13.1014 22.1214 13.0952 22.1214 12.3377 22.6142Z" fill="#054A91"/>
</svg>
